# xmcd CD database file
#
# Track frame offsets:
#	150
#	19660
#	40033
#	60458
#	82998
#	105923
#	126980
#	150785
#	169628
#	191915
#	210573
#	228320
#	248908
#	266788
#	288740
#
# Disc length: 4082 seconds
#
# Revision: 0
# Processed by: cddbd v1.5.2PL0 Copyright (c) Steve Scherf et al.
# Submitted via: CDex 1.70beta2
#
DISCID=c10ff00f
DTITLE=辛曉琪 - 遺忘
DYEAR=1995
DGENRE=國語流行
TTITLE0=風之彩
TTITLE1=遺忘
TTITLE2=荒唐
TTITLE3=不如這樣吧
TTITLE4=纏綿像朵花
TTITLE5=非你不等
TTITLE6=跟隨你
TTITLE7=美麗的愛情氣球
TTITLE8=瘸定
TTITLE9=懸崖
TTITLE10=味道
TTITLE11=走過
TTITLE12=倆倆相忘
TTITLE13=領悟
TTITLE14=濤聲依舊
EXTD=YEAR: 1995
EXTT0=
EXTT1=
EXTT2=
EXTT3=
EXTT4=
EXTT5=
EXTT6=
EXTT7=
EXTT8=
EXTT9=
EXTT10=
EXTT11=
EXTT12=
EXTT13=
EXTT14=
PLAYORDER=
